<?xml version="1.0" encoding="UTF-8" standalone="no"?>
<!DOCTYPE svg PUBLIC "-//W3C//DTD SVG 1.1//EN"
 "http://www.w3.org/Graphics/SVG/1.1/DTD/svg11.dtd">
<!-- Generated by graphviz version 2.42.4 (0)
 -->
<!-- Title: source tree Pages: 1 -->
<svg width="8pt" height="8pt"
 viewBox="0.00 0.00 8.00 8.00" xmlns="http://www.w3.org/2000/svg" xmlns:xlink="http://www.w3.org/1999/xlink">
<g id="graph0" class="graph" transform="scale(1 1) rotate(0) translate(4 4)">
<title>source tree</title>
<polygon fill="white" stroke="transparent" points="-4,4 -4,-4 4,-4 4,4 -4,4"/>
<g id="clust1" class="cluster">
<title>clustercrow</title>
<polygon fill="none" stroke="black" points="0,0 0,0 0,0 0,0 0,0"/>
<text text-anchor="middle" x="0" y="8.1" font-family="Helvetica,sans-Serif" font-size="32.00">crow</text>
</g>
<g id="clust2" class="cluster">
<title>clustercrow/debug</title>
<polygon fill="none" stroke="black" points="0,0 0,0 0,0 0,0 0,0"/>
<text text-anchor="middle" x="0" y="8.1" font-family="Helvetica,sans-Serif" font-size="32.00">crow/debug</text>
</g>
<g id="clust3" class="cluster">
<title>clustercrow/ast/node</title>
<polygon fill="none" stroke="black" points="0,0 0,0 0,0 0,0 0,0"/>
<text text-anchor="middle" x="0" y="8.1" font-family="Helvetica,sans-Serif" font-size="32.00">crow/ast/node</text>
</g>
<g id="clust4" class="cluster">
<title>clustercrow/ast/visitor</title>
<polygon fill="none" stroke="black" points="0,0 0,0 0,0 0,0 0,0"/>
<text text-anchor="middle" x="0" y="8.1" font-family="Helvetica,sans-Serif" font-size="32.00">crow/ast/visitor</text>
</g>
<g id="clust5" class="cluster">
<title>clustercrow/check</title>
<polygon fill="none" stroke="black" points="0,0 0,0 0,0 0,0 0,0"/>
<text text-anchor="middle" x="0" y="8.1" font-family="Helvetica,sans-Serif" font-size="32.00">crow/check</text>
</g>
<g id="clust6" class="cluster">
<title>clustercrow/codegen/cpp_backend</title>
<polygon fill="none" stroke="black" points="0,0 0,0 0,0 0,0 0,0"/>
<text text-anchor="middle" x="0" y="8.1" font-family="Helvetica,sans-Serif" font-size="32.00">crow/codegen/cpp_backend</text>
</g>
<g id="clust7" class="cluster">
<title>clustercrow/codegen/llvm_backend</title>
<polygon fill="none" stroke="black" points="0,0 0,0 0,0 0,0 0,0"/>
<text text-anchor="middle" x="0" y="8.1" font-family="Helvetica,sans-Serif" font-size="32.00">crow/codegen/llvm_backend</text>
</g>
<g id="clust8" class="cluster">
<title>clustercrow/container</title>
<polygon fill="none" stroke="black" points="0,0 0,0 0,0 0,0 0,0"/>
<text text-anchor="middle" x="0" y="8.1" font-family="Helvetica,sans-Serif" font-size="32.00">crow/container</text>
</g>
<g id="clust9" class="cluster">
<title>clustercrow/lexer</title>
<polygon fill="none" stroke="black" points="0,0 0,0 0,0 0,0 0,0"/>
<text text-anchor="middle" x="0" y="8.1" font-family="Helvetica,sans-Serif" font-size="32.00">crow/lexer</text>
</g>
<g id="clust10" class="cluster">
<title>clustercrow/parser/crow</title>
<polygon fill="none" stroke="black" points="0,0 0,0 0,0 0,0 0,0"/>
<text text-anchor="middle" x="0" y="8.1" font-family="Helvetica,sans-Serif" font-size="32.00">crow/parser/crow</text>
</g>
<g id="clust11" class="cluster">
<title>clustercrow/check/symbol</title>
<polygon fill="none" stroke="black" points="0,0 0,0 0,0 0,0 0,0"/>
<text text-anchor="middle" x="0" y="8.1" font-family="Helvetica,sans-Serif" font-size="32.00">crow/check/symbol</text>
</g>
<g id="clust12" class="cluster">
<title>clustercrow/check/symbol_table</title>
<polygon fill="none" stroke="black" points="0,0 0,0 0,0 0,0 0,0"/>
<text text-anchor="middle" x="0" y="8.1" font-family="Helvetica,sans-Serif" font-size="32.00">crow/check/symbol_table</text>
</g>
<g id="clust13" class="cluster">
<title>clustercrow/ast/node/node_traits/typing</title>
<polygon fill="none" stroke="black" points="0,0 0,0 0,0 0,0 0,0"/>
<text text-anchor="middle" x="0" y="8.1" font-family="Helvetica,sans-Serif" font-size="32.00">crow/ast/node/node_traits/typing</text>
</g>
<g id="clust14" class="cluster">
<title>clustercrow/exception</title>
<polygon fill="none" stroke="black" points="0,0 0,0 0,0 0,0 0,0"/>
<text text-anchor="middle" x="0" y="8.1" font-family="Helvetica,sans-Serif" font-size="32.00">crow/exception</text>
</g>
<g id="clust15" class="cluster">
<title>clusterlib</title>
<polygon fill="none" stroke="black" points="0,0 0,0 0,0 0,0 0,0"/>
<text text-anchor="middle" x="0" y="8.1" font-family="Helvetica,sans-Serif" font-size="32.00">lib</text>
</g>
<g id="clust16" class="cluster">
<title>clustercrow/token/reserved</title>
<polygon fill="none" stroke="black" points="0,0 0,0 0,0 0,0 0,0"/>
<text text-anchor="middle" x="0" y="8.1" font-family="Helvetica,sans-Serif" font-size="32.00">crow/token/reserved</text>
</g>
<g id="clust17" class="cluster">
<title>clustercrow/token</title>
<polygon fill="none" stroke="black" points="0,0 0,0 0,0 0,0 0,0"/>
<text text-anchor="middle" x="0" y="8.1" font-family="Helvetica,sans-Serif" font-size="32.00">crow/token</text>
</g>
<g id="clust18" class="cluster">
<title>clustercrow/codegen/cpp_backend/interop_backends</title>
<polygon fill="none" stroke="black" points="0,0 0,0 0,0 0,0 0,0"/>
<text text-anchor="middle" x="0" y="8.1" font-family="Helvetica,sans-Serif" font-size="32.00">crow/codegen/cpp_backend/interop_backends</text>
</g>
<g id="clust19" class="cluster">
<title>clustercrow/codegen/cpp_backend/interop_backends/python_backend</title>
<polygon fill="none" stroke="black" points="0,0 0,0 0,0 0,0 0,0"/>
<text text-anchor="middle" x="0" y="8.1" font-family="Helvetica,sans-Serif" font-size="32.00">crow/codegen/cpp_backend/interop_backends/python_backend</text>
</g>
<g id="clust20" class="cluster">
<title>clustercrow/ast/node/control</title>
<polygon fill="none" stroke="black" points="0,0 0,0 0,0 0,0 0,0"/>
<text text-anchor="middle" x="0" y="8.1" font-family="Helvetica,sans-Serif" font-size="32.00">crow/ast/node/control</text>
</g>
<g id="clust21" class="cluster">
<title>clustercrow/ast/node/function</title>
<polygon fill="none" stroke="black" points="0,0 0,0 0,0 0,0 0,0"/>
<text text-anchor="middle" x="0" y="8.1" font-family="Helvetica,sans-Serif" font-size="32.00">crow/ast/node/function</text>
</g>
<g id="clust22" class="cluster">
<title>clustercrow/ast/node/lvalue</title>
<polygon fill="none" stroke="black" points="0,0 0,0 0,0 0,0 0,0"/>
<text text-anchor="middle" x="0" y="8.1" font-family="Helvetica,sans-Serif" font-size="32.00">crow/ast/node/lvalue</text>
</g>
<g id="clust23" class="cluster">
<title>clustercrow/ast/node/node_traits</title>
<polygon fill="none" stroke="black" points="0,0 0,0 0,0 0,0 0,0"/>
<text text-anchor="middle" x="0" y="8.1" font-family="Helvetica,sans-Serif" font-size="32.00">crow/ast/node/node_traits</text>
</g>
<g id="clust24" class="cluster">
<title>clustercrow/ast/node/operators</title>
<polygon fill="none" stroke="black" points="0,0 0,0 0,0 0,0 0,0"/>
<text text-anchor="middle" x="0" y="8.1" font-family="Helvetica,sans-Serif" font-size="32.00">crow/ast/node/operators</text>
</g>
<g id="clust25" class="cluster">
<title>clustercrow/ast/node/packaging</title>
<polygon fill="none" stroke="black" points="0,0 0,0 0,0 0,0 0,0"/>
<text text-anchor="middle" x="0" y="8.1" font-family="Helvetica,sans-Serif" font-size="32.00">crow/ast/node/packaging</text>
</g>
<g id="clust26" class="cluster">
<title>clustercrow/ast/node/rvalue</title>
<polygon fill="none" stroke="black" points="0,0 0,0 0,0 0,0 0,0"/>
<text text-anchor="middle" x="0" y="8.1" font-family="Helvetica,sans-Serif" font-size="32.00">crow/ast/node/rvalue</text>
</g>
<g id="clust27" class="cluster">
<title>clustercrow/ast/node/typing</title>
<polygon fill="none" stroke="black" points="0,0 0,0 0,0 0,0 0,0"/>
<text text-anchor="middle" x="0" y="8.1" font-family="Helvetica,sans-Serif" font-size="32.00">crow/ast/node/typing</text>
</g>
<g id="clust28" class="cluster">
<title>clustercrow/ast/archive</title>
<polygon fill="none" stroke="black" points="0,0 0,0 0,0 0,0 0,0"/>
<text text-anchor="middle" x="0" y="8.1" font-family="Helvetica,sans-Serif" font-size="32.00">crow/ast/archive</text>
</g>
<g id="clust29" class="cluster">
<title>clustercrow/parser</title>
<polygon fill="none" stroke="black" points="0,0 0,0 0,0 0,0 0,0"/>
<text text-anchor="middle" x="0" y="8.1" font-family="Helvetica,sans-Serif" font-size="32.00">crow/parser</text>
</g>
<g id="clust30" class="cluster">
<title>clustercrow/parser/pratt</title>
<polygon fill="none" stroke="black" points="0,0 0,0 0,0 0,0 0,0"/>
<text text-anchor="middle" x="0" y="8.1" font-family="Helvetica,sans-Serif" font-size="32.00">crow/parser/pratt</text>
</g>
<g id="clust31" class="cluster">
<title>clustercrow/parser/crow/context</title>
<polygon fill="none" stroke="black" points="0,0 0,0 0,0 0,0 0,0"/>
<text text-anchor="middle" x="0" y="8.1" font-family="Helvetica,sans-Serif" font-size="32.00">crow/parser/crow/context</text>
</g>
<g id="clust32" class="cluster">
<title>clustercrow/parser/pratt/binding</title>
<polygon fill="none" stroke="black" points="0,0 0,0 0,0 0,0 0,0"/>
<text text-anchor="middle" x="0" y="8.1" font-family="Helvetica,sans-Serif" font-size="32.00">crow/parser/pratt/binding</text>
</g>
<!-- phases -->
<g id="node1" class="node">
<title>phases</title>
<ellipse fill="none" stroke="black" cx="0" cy="0" rx="91.43" ry="30.31"/>
<text text-anchor="middle" x="0" y="8.1" font-family="Helvetica,sans-Serif" font-size="32.00">phases</text>
</g>
<!-- cli -->
<g id="node4" class="node">
<title>cli</title>
<ellipse fill="none" stroke="black" cx="0" cy="0" rx="36.54" ry="30.31"/>
<text text-anchor="middle" x="0" y="8.1" font-family="Helvetica,sans-Serif" font-size="32.00">cli</text>
</g>
<!-- fdecl -->
<g id="node7" class="node">
<title>fdecl</title>
<ellipse fill="none" stroke="black" cx="0" cy="0" rx="66.44" ry="30.31"/>
<text text-anchor="middle" x="0" y="8.1" font-family="Helvetica,sans-Serif" font-size="32.00">fdecl</text>
</g>
<!-- ast_printer -->
<g id="node8" class="node">
<title>ast_printer</title>
<ellipse fill="none" stroke="black" cx="0" cy="0" rx="134.2" ry="30.31"/>
<text text-anchor="middle" x="0" y="8.1" font-family="Helvetica,sans-Serif" font-size="32.00">ast_printer</text>
</g>
<!-- semantic_checker -->
<g id="node9" class="node">
<title>semantic_checker</title>
<ellipse fill="none" stroke="black" cx="0" cy="0" rx="214.01" ry="30.31"/>
<text text-anchor="middle" x="0" y="8.1" font-family="Helvetica,sans-Serif" font-size="32.00">semantic_checker</text>
</g>
<!-- cpp_backend -->
<g id="node10" class="node">
<title>cpp_backend</title>
<ellipse fill="none" stroke="black" cx="0" cy="0" rx="158.28" ry="30.31"/>
<text text-anchor="middle" x="0" y="8.1" font-family="Helvetica,sans-Serif" font-size="32.00">cpp_backend</text>
</g>
<!-- llvm_backend -->
<g id="node11" class="node">
<title>llvm_backend</title>
<ellipse fill="none" stroke="black" cx="0" cy="0" rx="166.34" ry="30.31"/>
<text text-anchor="middle" x="0" y="8.1" font-family="Helvetica,sans-Serif" font-size="32.00">llvm_backend</text>
</g>
<!-- text_buffer -->
<g id="node12" class="node">
<title>text_buffer</title>
<ellipse fill="none" stroke="black" cx="0" cy="0" rx="135.11" ry="30.31"/>
<text text-anchor="middle" x="0" y="8.1" font-family="Helvetica,sans-Serif" font-size="32.00">text_buffer</text>
</g>
<!-- lexer -->
<g id="node13" class="node">
<title>lexer</title>
<ellipse fill="none" stroke="black" cx="0" cy="0" rx="67.76" ry="30.31"/>
<text text-anchor="middle" x="0" y="8.1" font-family="Helvetica,sans-Serif" font-size="32.00">lexer</text>
</g>
<!-- crow_parser -->
<g id="node14" class="node">
<title>crow_parser</title>
<ellipse fill="none" stroke="black" cx="0" cy="0" rx="149.4" ry="30.31"/>
<text text-anchor="middle" x="0" y="8.1" font-family="Helvetica,sans-Serif" font-size="32.00">crow_parser</text>
</g>
<!-- log -->
<g id="node15" class="node">
<title>log</title>
<ellipse fill="none" stroke="black" cx="0" cy="0" rx="45.92" ry="30.31"/>
<text text-anchor="middle" x="0" y="8.1" font-family="Helvetica,sans-Serif" font-size="32.00">log</text>
</g>
<!-- main -->
<g id="node2" class="node">
<title>main</title>
<ellipse fill="none" stroke="black" cx="0" cy="0" rx="68.68" ry="30.31"/>
<text text-anchor="middle" x="0" y="8.1" font-family="Helvetica,sans-Serif" font-size="32.00">main</text>
</g>
<!-- banner -->
<g id="node3" class="node">
<title>banner</title>
<ellipse fill="none" stroke="black" cx="0" cy="0" rx="91.85" ry="30.31"/>
<text text-anchor="middle" x="0" y="8.1" font-family="Helvetica,sans-Serif" font-size="32.00">banner</text>
</g>
<!-- loglevel -->
<g id="node5" class="node">
<title>loglevel</title>
<ellipse fill="none" stroke="black" cx="0" cy="0" rx="99.9" ry="30.31"/>
<text text-anchor="middle" x="0" y="8.1" font-family="Helvetica,sans-Serif" font-size="32.00">loglevel</text>
</g>
<!-- definitions -->
<g id="node6" class="node">
<title>definitions</title>
<ellipse fill="none" stroke="black" cx="0" cy="0" rx="130.22" ry="30.31"/>
<text text-anchor="middle" x="0" y="8.1" font-family="Helvetica,sans-Serif" font-size="32.00">definitions</text>
</g>
<!-- types -->
<g id="node24" class="node">
<title>types</title>
<ellipse fill="none" stroke="black" cx="0" cy="0" rx="73.58" ry="30.31"/>
<text text-anchor="middle" x="0" y="8.1" font-family="Helvetica,sans-Serif" font-size="32.00">types</text>
</g>
<!-- enum2int -->
<g id="node108" class="node">
<title>enum2int</title>
<ellipse fill="none" stroke="black" cx="0" cy="0" rx="120.42" ry="30.31"/>
<text text-anchor="middle" x="0" y="8.1" font-family="Helvetica,sans-Serif" font-size="32.00">enum2int</text>
</g>
<!-- node_visitor -->
<g id="node16" class="node">
<title>node_visitor</title>
<ellipse fill="none" stroke="black" cx="0" cy="0" rx="149.4" ry="30.31"/>
<text text-anchor="middle" x="0" y="8.1" font-family="Helvetica,sans-Serif" font-size="32.00">node_visitor</text>
</g>
<!-- include_nodes -->
<g id="node25" class="node">
<title>include_nodes</title>
<ellipse fill="none" stroke="black" cx="0" cy="0" rx="172.57" ry="30.31"/>
<text text-anchor="middle" x="0" y="8.1" font-family="Helvetica,sans-Serif" font-size="32.00">include_nodes</text>
</g>
<!-- semantic_checker_helper -->
<g id="node17" class="node">
<title>semantic_checker_helper</title>
<ellipse fill="none" stroke="black" cx="0" cy="0" rx="297.88" ry="30.31"/>
<text text-anchor="middle" x="0" y="8.1" font-family="Helvetica,sans-Serif" font-size="32.00">semantic_checker_helper</text>
</g>
<!-- symbol_data -->
<g id="node21" class="node">
<title>symbol_data</title>
<ellipse fill="none" stroke="black" cx="0" cy="0" rx="155.63" ry="30.31"/>
<text text-anchor="middle" x="0" y="8.1" font-family="Helvetica,sans-Serif" font-size="32.00">symbol_data</text>
</g>
<!-- error -->
<g id="node26" class="node">
<title>error</title>
<ellipse fill="none" stroke="black" cx="0" cy="0" rx="67.35" ry="30.31"/>
<text text-anchor="middle" x="0" y="8.1" font-family="Helvetica,sans-Serif" font-size="32.00">error</text>
</g>
<!-- filesystem -->
<g id="node36" class="node">
<title>filesystem</title>
<ellipse fill="none" stroke="black" cx="0" cy="0" rx="127.97" ry="30.31"/>
<text text-anchor="middle" x="0" y="8.1" font-family="Helvetica,sans-Serif" font-size="32.00">filesystem</text>
</g>
<!-- interop_backend_interface -->
<g id="node37" class="node">
<title>interop_backend_interface</title>
<ellipse fill="none" stroke="black" cx="0" cy="0" rx="310.34" ry="30.31"/>
<text text-anchor="middle" x="0" y="8.1" font-family="Helvetica,sans-Serif" font-size="32.00">interop_backend_interface</text>
</g>
<!-- type_variant2cpp_type -->
<g id="node38" class="node">
<title>type_variant2cpp_type</title>
<ellipse fill="none" stroke="black" cx="0" cy="0" rx="270.23" ry="30.31"/>
<text text-anchor="middle" x="0" y="8.1" font-family="Helvetica,sans-Serif" font-size="32.00">type_variant2cpp_type</text>
</g>
<!-- clang_frontend_invoker -->
<g id="node39" class="node">
<title>clang_frontend_invoker</title>
<ellipse fill="none" stroke="black" cx="0" cy="0" rx="275.13" ry="30.31"/>
<text text-anchor="middle" x="0" y="8.1" font-family="Helvetica,sans-Serif" font-size="32.00">clang_frontend_invoker</text>
</g>
<!-- prototype_generator -->
<g id="node40" class="node">
<title>prototype_generator</title>
<ellipse fill="none" stroke="black" cx="0" cy="0" rx="245.23" ry="30.31"/>
<text text-anchor="middle" x="0" y="8.1" font-family="Helvetica,sans-Serif" font-size="32.00">prototype_generator</text>
</g>
<!-- text_stream -->
<g id="node32" class="node">
<title>text_stream</title>
<ellipse fill="none" stroke="black" cx="0" cy="0" rx="147.57" ry="30.31"/>
<text text-anchor="middle" x="0" y="8.1" font-family="Helvetica,sans-Serif" font-size="32.00">text_stream</text>
</g>
<!-- reserved -->
<g id="node33" class="node">
<title>reserved</title>
<ellipse fill="none" stroke="black" cx="0" cy="0" rx="111.03" ry="30.31"/>
<text text-anchor="middle" x="0" y="8.1" font-family="Helvetica,sans-Serif" font-size="32.00">reserved</text>
</g>
<!-- tokenstream -->
<g id="node34" class="node">
<title>tokenstream</title>
<ellipse fill="none" stroke="black" cx="0" cy="0" rx="154.3" ry="30.31"/>
<text text-anchor="middle" x="0" y="8.1" font-family="Helvetica,sans-Serif" font-size="32.00">tokenstream</text>
</g>
<!-- syntax_error -->
<g id="node35" class="node">
<title>syntax_error</title>
<ellipse fill="none" stroke="black" cx="0" cy="0" rx="153.38" ry="30.31"/>
<text text-anchor="middle" x="0" y="8.1" font-family="Helvetica,sans-Serif" font-size="32.00">syntax_error</text>
</g>
<!-- trace -->
<g id="node105" class="node">
<title>trace</title>
<ellipse fill="none" stroke="black" cx="0" cy="0" rx="70.01" ry="30.31"/>
<text text-anchor="middle" x="0" y="8.1" font-family="Helvetica,sans-Serif" font-size="32.00">trace</text>
</g>
<!-- pratt_parser -->
<g id="node110" class="node">
<title>pratt_parser</title>
<ellipse fill="none" stroke="black" cx="0" cy="0" rx="151.14" ry="30.31"/>
<text text-anchor="middle" x="0" y="8.1" font-family="Helvetica,sans-Serif" font-size="32.00">pratt_parser</text>
</g>
<!-- context_guard -->
<g id="node111" class="node">
<title>context_guard</title>
<ellipse fill="none" stroke="black" cx="0" cy="0" rx="173.9" ry="30.31"/>
<text text-anchor="middle" x="0" y="8.1" font-family="Helvetica,sans-Serif" font-size="32.00">context_guard</text>
</g>
<!-- source_position -->
<g id="node103" class="node">
<title>source_position</title>
<ellipse fill="none" stroke="black" cx="0" cy="0" rx="187.27" ry="30.31"/>
<text text-anchor="middle" x="0" y="8.1" font-family="Helvetica,sans-Serif" font-size="32.00">source_position</text>
</g>
<!-- log_macros -->
<g id="node104" class="node">
<title>log_macros</title>
<ellipse fill="none" stroke="black" cx="0" cy="0" rx="140.01" ry="30.31"/>
<text text-anchor="middle" x="0" y="8.1" font-family="Helvetica,sans-Serif" font-size="32.00">log_macros</text>
</g>
<!-- visitable -->
<g id="node102" class="node">
<title>visitable</title>
<ellipse fill="none" stroke="black" cx="0" cy="0" rx="106.55" ry="30.31"/>
<text text-anchor="middle" x="0" y="8.1" font-family="Helvetica,sans-Serif" font-size="32.00">visitable</text>
</g>
<!-- text_position -->
<g id="node18" class="node">
<title>text_position</title>
<ellipse fill="none" stroke="black" cx="0" cy="0" rx="157.87" ry="30.31"/>
<text text-anchor="middle" x="0" y="8.1" font-family="Helvetica,sans-Serif" font-size="32.00">text_position</text>
</g>
<!-- env_state -->
<g id="node19" class="node">
<title>env_state</title>
<ellipse fill="none" stroke="black" cx="0" cy="0" rx="121.74" ry="30.31"/>
<text text-anchor="middle" x="0" y="8.1" font-family="Helvetica,sans-Serif" font-size="32.00">env_state</text>
</g>
<!-- symbol -->
<g id="node20" class="node">
<title>symbol</title>
<ellipse fill="none" stroke="black" cx="0" cy="0" rx="93.18" ry="30.31"/>
<text text-anchor="middle" x="0" y="8.1" font-family="Helvetica,sans-Serif" font-size="32.00">symbol</text>
</g>
<!-- symbol_table_factory -->
<g id="node22" class="node">
<title>symbol_table_factory</title>
<ellipse fill="none" stroke="black" cx="0" cy="0" rx="252.37" ry="30.31"/>
<text text-anchor="middle" x="0" y="8.1" font-family="Helvetica,sans-Serif" font-size="32.00">symbol_table_factory</text>
</g>
<!-- type_promoter -->
<g id="node23" class="node">
<title>type_promoter</title>
<ellipse fill="none" stroke="black" cx="0" cy="0" rx="178.8" ry="30.31"/>
<text text-anchor="middle" x="0" y="8.1" font-family="Helvetica,sans-Serif" font-size="32.00">type_promoter</text>
</g>
<!-- type_error -->
<g id="node27" class="node">
<title>type_error</title>
<ellipse fill="none" stroke="black" cx="0" cy="0" rx="128.89" ry="30.31"/>
<text text-anchor="middle" x="0" y="8.1" font-family="Helvetica,sans-Serif" font-size="32.00">type_error</text>
</g>
<!-- symbol_types -->
<g id="node28" class="node">
<title>symbol_types</title>
<ellipse fill="none" stroke="black" cx="0" cy="0" rx="166.75" ry="30.31"/>
<text text-anchor="middle" x="0" y="8.1" font-family="Helvetica,sans-Serif" font-size="32.00">symbol_types</text>
</g>
<!-- overload -->
<g id="node29" class="node">
<title>overload</title>
<ellipse fill="none" stroke="black" cx="0" cy="0" rx="110.12" ry="30.31"/>
<text text-anchor="middle" x="0" y="8.1" font-family="Helvetica,sans-Serif" font-size="32.00">overload</text>
</g>
<!-- symbol_table -->
<g id="node30" class="node">
<title>symbol_table</title>
<ellipse fill="none" stroke="black" cx="0" cy="0" rx="161.85" ry="30.31"/>
<text text-anchor="middle" x="0" y="8.1" font-family="Helvetica,sans-Serif" font-size="32.00">symbol_table</text>
</g>
<!-- type_variant -->
<g id="node88" class="node">
<title>type_variant</title>
<ellipse fill="none" stroke="black" cx="0" cy="0" rx="153.38" ry="30.31"/>
<text text-anchor="middle" x="0" y="8.1" font-family="Helvetica,sans-Serif" font-size="32.00">type_variant</text>
</g>
<!-- include -->
<g id="node48" class="node">
<title>include</title>
<ellipse fill="none" stroke="black" cx="0" cy="0" rx="93.18" ry="30.31"/>
<text text-anchor="middle" x="0" y="8.1" font-family="Helvetica,sans-Serif" font-size="32.00">include</text>
</g>
<!-- symbol_table_interface -->
<g id="node31" class="node">
<title>symbol_table_interface</title>
<ellipse fill="none" stroke="black" cx="0" cy="0" rx="273.8" ry="30.31"/>
<text text-anchor="middle" x="0" y="8.1" font-family="Helvetica,sans-Serif" font-size="32.00">symbol_table_interface</text>
</g>
<!-- stream -->
<g id="node44" class="node">
<title>stream</title>
<ellipse fill="none" stroke="black" cx="0" cy="0" rx="91.43" ry="30.31"/>
<text text-anchor="middle" x="0" y="8.1" font-family="Helvetica,sans-Serif" font-size="32.00">stream</text>
</g>
<!-- terminal -->
<g id="node46" class="node">
<title>terminal</title>
<ellipse fill="none" stroke="black" cx="0" cy="0" rx="106.55" ry="30.31"/>
<text text-anchor="middle" x="0" y="8.1" font-family="Helvetica,sans-Serif" font-size="32.00">terminal</text>
</g>
<!-- token -->
<g id="node42" class="node">
<title>token</title>
<ellipse fill="none" stroke="black" cx="0" cy="0" rx="74.91" ry="30.31"/>
<text text-anchor="middle" x="0" y="8.1" font-family="Helvetica,sans-Serif" font-size="32.00">token</text>
</g>
<!-- python_backend -->
<g id="node41" class="node">
<title>python_backend</title>
<ellipse fill="none" stroke="black" cx="0" cy="0" rx="196.65" ry="30.31"/>
<text text-anchor="middle" x="0" y="8.1" font-family="Helvetica,sans-Serif" font-size="32.00">python_backend</text>
</g>
<!-- tokentype2str -->
<g id="node43" class="node">
<title>tokentype2str</title>
<ellipse fill="none" stroke="black" cx="0" cy="0" rx="169.91" ry="30.31"/>
<text text-anchor="middle" x="0" y="8.1" font-family="Helvetica,sans-Serif" font-size="32.00">tokentype2str</text>
</g>
<!-- token_type -->
<g id="node45" class="node">
<title>token_type</title>
<ellipse fill="none" stroke="black" cx="0" cy="0" rx="136.44" ry="30.31"/>
<text text-anchor="middle" x="0" y="8.1" font-family="Helvetica,sans-Serif" font-size="32.00">token_type</text>
</g>
<!-- list -->
<g id="node47" class="node">
<title>list</title>
<ellipse fill="none" stroke="black" cx="0" cy="0" rx="45.01" ry="30.31"/>
<text text-anchor="middle" x="0" y="8.1" font-family="Helvetica,sans-Serif" font-size="32.00">list</text>
</g>
<!-- node_interface -->
<g id="node49" class="node">
<title>node_interface</title>
<ellipse fill="none" stroke="black" cx="0" cy="0" rx="179.71" ry="30.31"/>
<text text-anchor="middle" x="0" y="8.1" font-family="Helvetica,sans-Serif" font-size="32.00">node_interface</text>
</g>
<!-- nil -->
<g id="node50" class="node">
<title>nil</title>
<ellipse fill="none" stroke="black" cx="0" cy="0" rx="38.78" ry="30.31"/>
<text text-anchor="middle" x="0" y="8.1" font-family="Helvetica,sans-Serif" font-size="32.00">nil</text>
</g>
<!-- return_type -->
<g id="node52" class="node">
<title>return_type</title>
<ellipse fill="none" stroke="black" cx="0" cy="0" rx="142.67" ry="30.31"/>
<text text-anchor="middle" x="0" y="8.1" font-family="Helvetica,sans-Serif" font-size="32.00">return_type</text>
</g>
<!-- function -->
<g id="node53" class="node">
<title>function</title>
<ellipse fill="none" stroke="black" cx="0" cy="0" rx="103.89" ry="30.31"/>
<text text-anchor="middle" x="0" y="8.1" font-family="Helvetica,sans-Serif" font-size="32.00">function</text>
</g>
<!-- call -->
<g id="node54" class="node">
<title>call</title>
<ellipse fill="none" stroke="black" cx="0" cy="0" rx="50.41" ry="30.31"/>
<text text-anchor="middle" x="0" y="8.1" font-family="Helvetica,sans-Serif" font-size="32.00">call</text>
</g>
<!-- parameter -->
<g id="node55" class="node">
<title>parameter</title>
<ellipse fill="none" stroke="black" cx="0" cy="0" rx="131.54" ry="30.31"/>
<text text-anchor="middle" x="0" y="8.1" font-family="Helvetica,sans-Serif" font-size="32.00">parameter</text>
</g>
<!-- literal -->
<g id="node56" class="node">
<title>literal</title>
<ellipse fill="none" stroke="black" cx="0" cy="0" rx="77.15" ry="30.31"/>
<text text-anchor="middle" x="0" y="8.1" font-family="Helvetica,sans-Serif" font-size="32.00">literal</text>
</g>
<!-- impl -->
<g id="node57" class="node">
<title>impl</title>
<ellipse fill="none" stroke="black" cx="0" cy="0" rx="60.62" ry="30.31"/>
<text text-anchor="middle" x="0" y="8.1" font-family="Helvetica,sans-Serif" font-size="32.00">impl</text>
</g>
<!-- dot_expr -->
<g id="node58" class="node">
<title>dot_expr</title>
<ellipse fill="none" stroke="black" cx="0" cy="0" rx="111.03" ry="30.31"/>
<text text-anchor="middle" x="0" y="8.1" font-family="Helvetica,sans-Serif" font-size="32.00">dot_expr</text>
</g>
<!-- method_decl -->
<g id="node59" class="node">
<title>method_decl</title>
<ellipse fill="none" stroke="black" cx="0" cy="0" rx="156.96" ry="30.31"/>
<text text-anchor="middle" x="0" y="8.1" font-family="Helvetica,sans-Serif" font-size="32.00">method_decl</text>
</g>
<!-- member_decl -->
<g id="node60" class="node">
<title>member_decl</title>
<ellipse fill="none" stroke="black" cx="0" cy="0" rx="165.43" ry="30.31"/>
<text text-anchor="middle" x="0" y="8.1" font-family="Helvetica,sans-Serif" font-size="32.00">member_decl</text>
</g>
<!-- struct -->
<g id="node61" class="node">
<title>struct</title>
<ellipse fill="none" stroke="black" cx="0" cy="0" rx="77.56" ry="30.31"/>
<text text-anchor="middle" x="0" y="8.1" font-family="Helvetica,sans-Serif" font-size="32.00">struct</text>
</g>
<!-- interface -->
<g id="node62" class="node">
<title>interface</title>
<ellipse fill="none" stroke="black" cx="0" cy="0" rx="112.36" ry="30.31"/>
<text text-anchor="middle" x="0" y="8.1" font-family="Helvetica,sans-Serif" font-size="32.00">interface</text>
</g>
<!-- decrement -->
<g id="node63" class="node">
<title>decrement</title>
<ellipse fill="none" stroke="black" cx="0" cy="0" rx="134.2" ry="30.31"/>
<text text-anchor="middle" x="0" y="8.1" font-family="Helvetica,sans-Serif" font-size="32.00">decrement</text>
</g>
<!-- assignment -->
<g id="node64" class="node">
<title>assignment</title>
<ellipse fill="none" stroke="black" cx="0" cy="0" rx="143.59" ry="30.31"/>
<text text-anchor="middle" x="0" y="8.1" font-family="Helvetica,sans-Serif" font-size="32.00">assignment</text>
</g>
<!-- arithmetic -->
<g id="node65" class="node">
<title>arithmetic</title>
<ellipse fill="none" stroke="black" cx="0" cy="0" rx="128.89" ry="30.31"/>
<text text-anchor="middle" x="0" y="8.1" font-family="Helvetica,sans-Serif" font-size="32.00">arithmetic</text>
</g>
<!-- ternary -->
<g id="node66" class="node">
<title>ternary</title>
<ellipse fill="none" stroke="black" cx="0" cy="0" rx="94.51" ry="30.31"/>
<text text-anchor="middle" x="0" y="8.1" font-family="Helvetica,sans-Serif" font-size="32.00">ternary</text>
</g>
<!-- logical -->
<g id="node67" class="node">
<title>logical</title>
<ellipse fill="none" stroke="black" cx="0" cy="0" rx="84.71" ry="30.31"/>
<text text-anchor="middle" x="0" y="8.1" font-family="Helvetica,sans-Serif" font-size="32.00">logical</text>
</g>
<!-- unary_prefix -->
<g id="node68" class="node">
<title>unary_prefix</title>
<ellipse fill="none" stroke="black" cx="0" cy="0" rx="152.97" ry="30.31"/>
<text text-anchor="middle" x="0" y="8.1" font-family="Helvetica,sans-Serif" font-size="32.00">unary_prefix</text>
</g>
<!-- comparison -->
<g id="node69" class="node">
<title>comparison</title>
<ellipse fill="none" stroke="black" cx="0" cy="0" rx="143.59" ry="30.31"/>
<text text-anchor="middle" x="0" y="8.1" font-family="Helvetica,sans-Serif" font-size="32.00">comparison</text>
</g>
<!-- increment -->
<g id="node70" class="node">
<title>increment</title>
<ellipse fill="none" stroke="black" cx="0" cy="0" rx="126.64" ry="30.31"/>
<text text-anchor="middle" x="0" y="8.1" font-family="Helvetica,sans-Serif" font-size="32.00">increment</text>
</g>
<!-- alt -->
<g id="node71" class="node">
<title>alt</title>
<ellipse fill="none" stroke="black" cx="0" cy="0" rx="41.02" ry="30.31"/>
<text text-anchor="middle" x="0" y="8.1" font-family="Helvetica,sans-Serif" font-size="32.00">alt</text>
</g>
<!-- binary_operator -->
<g id="node72" class="node">
<title>binary_operator</title>
<ellipse fill="none" stroke="black" cx="0" cy="0" rx="192.17" ry="30.31"/>
<text text-anchor="middle" x="0" y="8.1" font-family="Helvetica,sans-Serif" font-size="32.00">binary_operator</text>
</g>
<!-- unary_operator -->
<g id="node73" class="node">
<title>unary_operator</title>
<ellipse fill="none" stroke="black" cx="0" cy="0" rx="185.94" ry="30.31"/>
<text text-anchor="middle" x="0" y="8.1" font-family="Helvetica,sans-Serif" font-size="32.00">unary_operator</text>
</g>
<!-- expr -->
<g id="node74" class="node">
<title>expr</title>
<ellipse fill="none" stroke="black" cx="0" cy="0" rx="62.87" ry="30.31"/>
<text text-anchor="middle" x="0" y="8.1" font-family="Helvetica,sans-Serif" font-size="32.00">expr</text>
</g>
<!-- then -->
<g id="node75" class="node">
<title>then</title>
<ellipse fill="none" stroke="black" cx="0" cy="0" rx="62.87" ry="30.31"/>
<text text-anchor="middle" x="0" y="8.1" font-family="Helvetica,sans-Serif" font-size="32.00">then</text>
</g>
<!-- init_expr -->
<g id="node76" class="node">
<title>init_expr</title>
<ellipse fill="none" stroke="black" cx="0" cy="0" rx="109.7" ry="30.31"/>
<text text-anchor="middle" x="0" y="8.1" font-family="Helvetica,sans-Serif" font-size="32.00">init_expr</text>
</g>
<!-- args -->
<g id="node77" class="node">
<title>args</title>
<ellipse fill="none" stroke="black" cx="0" cy="0" rx="60.62" ry="30.31"/>
<text text-anchor="middle" x="0" y="8.1" font-family="Helvetica,sans-Serif" font-size="32.00">args</text>
</g>
<!-- condition -->
<g id="node78" class="node">
<title>condition</title>
<ellipse fill="none" stroke="black" cx="0" cy="0" rx="115.93" ry="30.31"/>
<text text-anchor="middle" x="0" y="8.1" font-family="Helvetica,sans-Serif" font-size="32.00">condition</text>
</g>
<!-- type_annotation -->
<g id="node79" class="node">
<title>type_annotation</title>
<ellipse fill="none" stroke="black" cx="0" cy="0" rx="195.74" ry="30.31"/>
<text text-anchor="middle" x="0" y="8.1" font-family="Helvetica,sans-Serif" font-size="32.00">type_annotation</text>
</g>
<!-- body -->
<g id="node80" class="node">
<title>body</title>
<ellipse fill="none" stroke="black" cx="0" cy="0" rx="67.35" ry="30.31"/>
<text text-anchor="middle" x="0" y="8.1" font-family="Helvetica,sans-Serif" font-size="32.00">body</text>
</g>
<!-- decl_expr -->
<g id="node81" class="node">
<title>decl_expr</title>
<ellipse fill="none" stroke="black" cx="0" cy="0" rx="120.42" ry="30.31"/>
<text text-anchor="middle" x="0" y="8.1" font-family="Helvetica,sans-Serif" font-size="32.00">decl_expr</text>
</g>
<!-- identifier -->
<g id="node82" class="node">
<title>identifier</title>
<ellipse fill="none" stroke="black" cx="0" cy="0" rx="113.69" ry="30.31"/>
<text text-anchor="middle" x="0" y="8.1" font-family="Helvetica,sans-Serif" font-size="32.00">identifier</text>
</g>
<!-- node_position -->
<g id="node83" class="node">
<title>node_position</title>
<ellipse fill="none" stroke="black" cx="0" cy="0" rx="169" ry="30.31"/>
<text text-anchor="middle" x="0" y="8.1" font-family="Helvetica,sans-Serif" font-size="32.00">node_position</text>
</g>
<!-- op -->
<g id="node84" class="node">
<title>op</title>
<ellipse fill="none" stroke="black" cx="0" cy="0" rx="39.7" ry="30.31"/>
<text text-anchor="middle" x="0" y="8.1" font-family="Helvetica,sans-Serif" font-size="32.00">op</text>
</g>
<!-- params -->
<g id="node85" class="node">
<title>params</title>
<ellipse fill="none" stroke="black" cx="0" cy="0" rx="96.75" ry="30.31"/>
<text text-anchor="middle" x="0" y="8.1" font-family="Helvetica,sans-Serif" font-size="32.00">params</text>
</g>
<!-- type_data -->
<g id="node86" class="node">
<title>type_data</title>
<ellipse fill="none" stroke="black" cx="0" cy="0" rx="124.4" ry="30.31"/>
<text text-anchor="middle" x="0" y="8.1" font-family="Helvetica,sans-Serif" font-size="32.00">type_data</text>
</g>
<!-- defer -->
<g id="node90" class="node">
<title>defer</title>
<ellipse fill="none" stroke="black" cx="0" cy="0" rx="71.34" ry="30.31"/>
<text text-anchor="middle" x="0" y="8.1" font-family="Helvetica,sans-Serif" font-size="32.00">defer</text>
</g>
<!-- break -->
<g id="node91" class="node">
<title>break</title>
<ellipse fill="none" stroke="black" cx="0" cy="0" rx="75.82" ry="30.31"/>
<text text-anchor="middle" x="0" y="8.1" font-family="Helvetica,sans-Serif" font-size="32.00">break</text>
</g>
<!-- continue -->
<g id="node92" class="node">
<title>continue</title>
<ellipse fill="none" stroke="black" cx="0" cy="0" rx="109.7" ry="30.31"/>
<text text-anchor="middle" x="0" y="8.1" font-family="Helvetica,sans-Serif" font-size="32.00">continue</text>
</g>
<!-- if -->
<g id="node93" class="node">
<title>if</title>
<ellipse fill="none" stroke="black" cx="0" cy="0" rx="27" ry="30.31"/>
<text text-anchor="middle" x="0" y="8.1" font-family="Helvetica,sans-Serif" font-size="32.00">if</text>
</g>
<!-- loop -->
<g id="node94" class="node">
<title>loop</title>
<ellipse fill="none" stroke="black" cx="0" cy="0" rx="60.21" ry="30.31"/>
<text text-anchor="middle" x="0" y="8.1" font-family="Helvetica,sans-Serif" font-size="32.00">loop</text>
</g>
<!-- return -->
<g id="node95" class="node">
<title>return</title>
<ellipse fill="none" stroke="black" cx="0" cy="0" rx="81.13" ry="30.31"/>
<text text-anchor="middle" x="0" y="8.1" font-family="Helvetica,sans-Serif" font-size="32.00">return</text>
</g>
<!-- let -->
<g id="node96" class="node">
<title>let</title>
<ellipse fill="none" stroke="black" cx="0" cy="0" rx="41.02" ry="30.31"/>
<text text-anchor="middle" x="0" y="8.1" font-family="Helvetica,sans-Serif" font-size="32.00">let</text>
</g>
<!-- var -->
<g id="node97" class="node">
<title>var</title>
<ellipse fill="none" stroke="black" cx="0" cy="0" rx="48.17" ry="30.31"/>
<text text-anchor="middle" x="0" y="8.1" font-family="Helvetica,sans-Serif" font-size="32.00">var</text>
</g>
<!-- variable -->
<g id="node98" class="node">
<title>variable</title>
<ellipse fill="none" stroke="black" cx="0" cy="0" rx="103.48" ry="30.31"/>
<text text-anchor="middle" x="0" y="8.1" font-family="Helvetica,sans-Serif" font-size="32.00">variable</text>
</g>
<!-- import -->
<g id="node99" class="node">
<title>import</title>
<ellipse fill="none" stroke="black" cx="0" cy="0" rx="86.95" ry="30.31"/>
<text text-anchor="middle" x="0" y="8.1" font-family="Helvetica,sans-Serif" font-size="32.00">import</text>
</g>
<!-- module_decl -->
<g id="node100" class="node">
<title>module_decl</title>
<ellipse fill="none" stroke="black" cx="0" cy="0" rx="154.3" ry="30.31"/>
<text text-anchor="middle" x="0" y="8.1" font-family="Helvetica,sans-Serif" font-size="32.00">module_decl</text>
</g>
<!-- archive -->
<g id="node51" class="node">
<title>archive</title>
<ellipse fill="none" stroke="black" cx="0" cy="0" rx="94.51" ry="30.31"/>
<text text-anchor="middle" x="0" y="8.1" font-family="Helvetica,sans-Serif" font-size="32.00">archive</text>
</g>
<!-- typing -->
<g id="node87" class="node">
<title>typing</title>
<ellipse fill="none" stroke="black" cx="0" cy="0" rx="83.38" ry="30.31"/>
<text text-anchor="middle" x="0" y="8.1" font-family="Helvetica,sans-Serif" font-size="32.00">typing</text>
</g>
<!-- native_types -->
<g id="node89" class="node">
<title>native_types</title>
<ellipse fill="none" stroke="black" cx="0" cy="0" rx="155.63" ry="30.31"/>
<text text-anchor="middle" x="0" y="8.1" font-family="Helvetica,sans-Serif" font-size="32.00">native_types</text>
</g>
<!-- ast_archive -->
<g id="node101" class="node">
<title>ast_archive</title>
<ellipse fill="none" stroke="black" cx="0" cy="0" rx="140.01" ry="30.31"/>
<text text-anchor="middle" x="0" y="8.1" font-family="Helvetica,sans-Serif" font-size="32.00">ast_archive</text>
</g>
<!-- trace_macros -->
<g id="node106" class="node">
<title>trace_macros</title>
<ellipse fill="none" stroke="black" cx="0" cy="0" rx="164.1" ry="30.31"/>
<text text-anchor="middle" x="0" y="8.1" font-family="Helvetica,sans-Serif" font-size="32.00">trace_macros</text>
</g>
<!-- macros -->
<g id="node107" class="node">
<title>macros</title>
<ellipse fill="none" stroke="black" cx="0" cy="0" rx="94.51" ry="30.31"/>
<text text-anchor="middle" x="0" y="8.1" font-family="Helvetica,sans-Serif" font-size="32.00">macros</text>
</g>
<!-- parser -->
<g id="node109" class="node">
<title>parser</title>
<ellipse fill="none" stroke="black" cx="0" cy="0" rx="84.29" ry="30.31"/>
<text text-anchor="middle" x="0" y="8.1" font-family="Helvetica,sans-Serif" font-size="32.00">parser</text>
</g>
<!-- maps -->
<g id="node113" class="node">
<title>maps</title>
<ellipse fill="none" stroke="black" cx="0" cy="0" rx="73.58" ry="30.31"/>
<text text-anchor="middle" x="0" y="8.1" font-family="Helvetica,sans-Serif" font-size="32.00">maps</text>
</g>
<!-- context_store -->
<g id="node112" class="node">
<title>context_store</title>
<ellipse fill="none" stroke="black" cx="0" cy="0" rx="165.43" ry="30.31"/>
<text text-anchor="middle" x="0" y="8.1" font-family="Helvetica,sans-Serif" font-size="32.00">context_store</text>
</g>
<!-- binding_map -->
<g id="node114" class="node">
<title>binding_map</title>
<ellipse fill="none" stroke="black" cx="0" cy="0" rx="157.87" ry="30.31"/>
<text text-anchor="middle" x="0" y="8.1" font-family="Helvetica,sans-Serif" font-size="32.00">binding_map</text>
</g>
</g>
</svg>
